<?xml version="1.0" encoding="UTF-8" standalone="no"?>
<!DOCTYPE svg PUBLIC "-//W3C//DTD SVG 1.1//EN" "http://www.w3.org/Graphics/SVG/1.1/DTD/svg11.dtd">
<svg width="100%" height="100%" viewBox="0 0 853 108" version="1.1" xmlns="http://www.w3.org/2000/svg" xmlns:xlink="http://www.w3.org/1999/xlink" xml:space="preserve" xmlns:serif="http://www.serif.com/" style="fill-rule:evenodd;clip-rule:evenodd;stroke-linejoin:round;stroke-miterlimit:1.41421;">
    <g transform="matrix(1,0,0,1,-186.354,-437.415)">
        <g transform="matrix(1,0,0,1,239.321,483.401)">
            <path d="M0,-5.007L53.194,25.876C62.566,30.683 71.259,31.764 81.232,27.838C93.129,23.152 101.26,13.459 102.221,0.521C103.022,-9.774 98.937,-20.348 91.366,-27.398C82.354,-35.849 70.377,-37.772 58.681,-34.728C56.558,-34.287 52.913,-32.765 50.189,-31.764C49.028,-31.363 48.066,-31.003 47.466,-30.923C42.819,-30.442 40.296,-36.651 44.461,-39.094C53.394,-44.341 65.531,-45.984 73.622,-45.182C83.396,-44.101 92.608,-39.855 99.658,-32.925C108.029,-24.634 112.355,-13.499 112.035,-1.722C111.594,14.981 102.181,29.281 86.88,36.09C77.507,40.215 66.933,40.977 57.199,38.053C53.714,37.011 51.631,35.77 48.467,34.007L-5.167,3.926L-7.851,8.532L-14.259,-7.41L2.764,-9.734L0,-5.007Z" style="fill:rgb(0,136,255);"/>
        </g>
        <g transform="matrix(1,0,0,1,298.402,477.874)">
            <path d="M0,4.926L-53.153,-25.917C-62.566,-30.723 -71.258,-31.804 -81.232,-27.879C-93.088,-23.193 -101.22,-13.499 -102.221,-0.562C-103.022,9.733 -98.937,20.307 -91.366,27.357C-82.313,35.808 -70.377,37.731 -58.641,34.687C-56.558,34.247 -52.873,32.724 -50.189,31.723C-49.027,31.322 -48.066,30.962 -47.425,30.882C-42.779,30.401 -40.255,36.61 -44.461,39.053C-53.394,44.301 -65.53,45.943 -73.622,45.141C-83.395,44.06 -92.607,39.814 -99.617,32.884C-108.029,24.593 -112.315,13.458 -112.035,1.681C-111.594,-15.022 -102.181,-29.321 -86.84,-36.131C-77.507,-40.256 -66.932,-41.017 -57.199,-38.094C-53.674,-37.052 -51.591,-35.85 -48.467,-34.088L5.167,-3.966L7.891,-8.613L14.3,7.369L-2.764,9.693L0,4.926Z" style="fill:rgb(0,136,255);"/>
        </g>
        <g transform="matrix(1,0,0,1,463.434,441.245)">
            <path d="M0,77.736C-7.122,80.289 -14.647,81.566 -22.508,81.566C-52.675,81.566 -67.726,66.986 -67.726,37.692C-67.726,10.011 -53.011,-3.83 -23.516,-3.83C-15.453,-3.83 -7.592,-2.62 0,-0.269L0,5.039C-7.592,2.62 -15.117,1.478 -22.374,1.478C-48.51,1.478 -61.544,13.572 -61.544,37.692C-61.544,63.425 -48.846,76.325 -23.516,76.325C-18.275,76.325 -12.497,75.452 -6.182,73.705L-6.182,42.731L0,42.731L0,77.736Z" style="fill:rgb(0,136,255);fill-rule:nonzero;"/>
        </g>
        <g transform="matrix(1,0,0,1,481.44,460.393)">
            <path d="M0,61.88L0,0L4.434,0L5.173,10.28C11.354,3.427 18.275,0 25.934,0L25.934,4.972C18.543,4.972 11.959,8.533 6.181,15.722L6.181,61.88L0,61.88Z" style="fill:rgb(0,136,255);fill-rule:nonzero;"/>
        </g>
        <g transform="matrix(1,0,0,1,558.309,471.742)">
            <path d="M0,39.175C-6.798,43.201 -13.988,45.222 -21.507,45.222C-31.719,45.222 -36.826,41.055 -36.826,32.863C-36.826,24.201 -30.717,19.893 -18.483,19.893C-12.704,19.893 -6.517,20.3 0,21.037L0,39.175ZM-17.873,-11.356C-24.592,-11.356 -31.312,-10.338 -37.969,-8.396L-37.969,-3.086C-31.312,-5.028 -24.592,-6.046 -17.873,-6.046C-5.921,-6.046 0,-1.331 0,8.13L0,15.727C-6.517,14.99 -12.704,14.583 -18.483,14.583C-34.805,14.583 -43.013,20.771 -43.013,32.988C-43.013,44.689 -35.823,50.531 -21.507,50.531C-14.254,50.531 -6.72,48.448 1.002,44.423L2.412,50.531L6.171,50.531L6.171,7.863C6.171,-4.965 -1.817,-11.356 -17.873,-11.356" style="fill:rgb(0,136,255);fill-rule:nonzero;"/>
        </g>
        <g transform="matrix(1,0,0,1,574.495,522.274)">
            <path d="M0,-61.88L7.122,-61.88L29.697,-5.375L52.474,-61.88L59.528,-61.88L33.191,0L26.002,0L0,-61.88Z" style="fill:rgb(0,136,255);fill-rule:nonzero;"/>
        </g>
        <g transform="matrix(-1,-0,-0,1,1296.6,-116.905)">
            <rect x="644.64" y="554.925" width="7.323" height="7.055" style="fill:rgb(0,136,255);"/>
        </g>
        <g transform="matrix(-1,-0,-0,1,1296.67,-17.334)">
            <rect x="645.244" y="477.727" width="6.182" height="61.88" style="fill:rgb(0,136,255);"/>
        </g>
        <g transform="matrix(1,0,0,1,671.179,522.274)">
            <path d="M0,-71.891L4.367,-71.891L5.509,-61.88L24.053,-61.88L24.053,-56.572L6.047,-56.572L6.047,-17.537C6.047,-9.407 9.003,-5.308 14.982,-5.308L24.053,-5.308L24.053,0L15.117,0C5.039,0 0,-5.577 0,-16.662L0,-71.891Z" style="fill:rgb(0,136,255);fill-rule:nonzero;"/>
        </g>
        <g transform="matrix(1,0,0,1,701.01,545.118)">
            <path d="M0,-84.724L7.122,-84.724L30.101,-28.891L52.742,-84.724L59.596,-84.724L32.721,-21.03C28.151,-9.809 21.299,-2.754 12.229,0L10.347,-4.905C17.536,-7.525 22.979,-13.236 26.741,-21.904L0,-84.724Z" style="fill:rgb(0,136,255);fill-rule:nonzero;"/>
        </g>
        <g transform="matrix(1,0,0,1,846.522,522.273)">
            <path d="M0,-84.253L0,-75.451L-44.143,-75.451L-44.143,-47.165L-2.016,-47.165L-2.016,-38.296L-44.143,-38.296L-44.143,0L-55.094,0L-55.094,-84.253L0,-84.253Z" style="fill:rgb(0,136,255);fill-rule:nonzero;"/>
        </g>
        <g transform="matrix(-1,-0,-0,1,1728.79,-39.707)">
            <rect x="858.952" y="477.727" width="10.885" height="84.253" style="fill:rgb(0,136,255);"/>
        </g>
        <g transform="matrix(1,0,0,1,914.581,469.189)">
            <path d="M0,44.219C-12.358,44.219 -18.546,36.763 -18.546,21.913C-18.546,7.33 -12.358,0.078 0,0.078C12.359,0.078 18.546,7.33 18.546,21.913C18.546,36.763 12.359,44.219 0,44.219M0,-8.803C-19.61,-8.803 -29.432,1.488 -29.432,22.117C-29.354,42.731 -19.548,53.022 0,53.022C19.627,53.022 29.495,42.731 29.495,22.117C29.495,1.488 19.627,-8.803 0,-8.803" style="fill:rgb(0,136,255);fill-rule:nonzero;"/>
        </g>
        <g transform="matrix(1,0,0,1,952.007,522.274)">
            <path d="M0,-61.88L11.02,-61.88L21.971,-13.37L38.028,-61.88L47.905,-61.88L65.105,-13.37L74.982,-61.88L86.538,-61.88L70.413,0L60.402,0L42.731,-46.292L25.868,0L15.655,0L0,-61.88Z" style="fill:rgb(0,136,255);fill-rule:nonzero;"/>
        </g>
    </g>
</svg>
