<?xml version="1.0" encoding="UTF-8"?>
<svg xmlns="http://www.w3.org/2000/svg" xmlns:xlink="http://www.w3.org/1999/xlink" width="347.200012pt" height="179.199997pt" viewBox="0 0 347.200012 179.199997" version="1.1">
<g id="surface1">
<path style=" stroke:none;fill-rule:nonzero;fill:rgb(48%,48%,48%);fill-opacity:1;" d="M 111.320312 84.855469 L 223.121094 149.765625 C 242.820312 159.867188 261.089844 162.140625 282.050781 153.890625 C 307.054688 144.039062 324.144531 123.667969 326.167969 96.472656 C 327.851562 74.839844 319.261719 52.613281 303.351562 37.796875 C 284.40625 20.035156 259.238281 15.992188 234.65625 22.390625 C 230.191406 23.316406 222.53125 26.515625 216.808594 28.621094 C 214.367188 29.460938 212.34375 30.21875 211.082031 30.390625 C 201.316406 31.398438 196.011719 18.347656 204.769531 13.214844 C 223.542969 2.183594 249.050781 -1.265625 266.058594 0.417969 C 286.597656 2.691406 305.960938 11.613281 320.777344 26.179688 C 338.371094 43.605469 347.464844 67.011719 346.792969 91.761719 C 345.867188 126.867188 326.082031 156.921875 293.921875 171.234375 C 274.222656 179.902344 251.996094 181.503906 231.539062 175.359375 C 224.214844 173.167969 219.835938 170.558594 213.1875 166.855469 L 100.460938 103.628906 L 94.820312 113.3125 L 81.351562 79.804688 L 117.128906 74.925781 Z M 111.320312 84.855469 "/>
<path style=" stroke:none;fill-rule:nonzero;fill:rgb(48%,48%,48%);fill-opacity:1;" d="M 235.5 94.117188 L 123.78125 29.292969 C 104 19.191406 85.730469 16.917969 64.769531 25.167969 C 39.847656 35.019531 22.757812 55.390625 20.652344 82.585938 C 18.96875 104.21875 27.558594 126.445312 43.46875 141.261719 C 62.492188 159.023438 87.582031 163.066406 112.25 156.667969 C 116.625 155.742188 124.371094 152.542969 130.011719 150.4375 C 132.453125 149.597656 134.476562 148.839844 135.820312 148.667969 C 145.589844 147.660156 150.890625 160.707031 142.050781 165.84375 C 123.277344 176.871094 97.769531 180.324219 80.761719 178.640625 C 60.222656 176.367188 40.859375 167.441406 26.125 152.878906 C 8.445312 135.453125 -0.5625 112.046875 0.0273438 87.296875 C 0.953125 52.191406 20.738281 22.136719 52.980469 7.824219 C 72.597656 -0.84375 94.824219 -2.445312 115.28125 3.699219 C 122.6875 5.890625 127.066406 8.414062 133.632812 12.121094 L 246.359375 75.429688 L 252.082031 65.664062 L 265.554688 99.253906 L 229.6875 104.132812 Z M 235.5 94.117188 "/>
</g>
</svg>
