<?xml version="1.0" encoding="UTF-8" standalone="no"?><!DOCTYPE svg PUBLIC "-//W3C//DTD SVG 1.1//EN"
        "http://www.w3.org/Graphics/SVG/1.1/DTD/svg11.dtd">
<svg width="100%" height="100%" viewBox="0 0 434 224" version="1.1" xmlns="http://www.w3.org/2000/svg" xmlns:xlink="http://www.w3.org/1999/xlink" xml:space="preserve" xmlns:serif="http://www.serif.com/" style="fill-rule:evenodd;clip-rule:evenodd;stroke-linejoin:round;stroke-miterlimit:1.41421;"><path d="M139.151,106.071l139.751,81.135c24.624,12.628 47.46,15.469 73.662,5.157c31.256,-12.313 52.617,-37.779 55.144,-71.77c2.105,-27.044 -8.631,-54.825 -28.52,-73.348c-23.678,-22.203 -55.142,-27.254 -85.87,-19.257c-5.577,1.158 -15.152,5.157 -22.309,7.787c-3.052,1.053 -5.579,2 -7.156,2.211c-12.208,1.263 -18.837,-15.049 -7.892,-21.469c23.466,-13.786 55.352,-18.099 76.61,-15.994c25.677,2.841 49.88,13.994 68.4,32.2c21.994,21.784 33.361,51.04 32.519,81.977c-1.158,43.883 -25.888,81.451 -66.088,99.341c-24.625,10.839 -52.406,12.838 -77.978,5.157c-9.156,-2.738 -14.627,-5.998 -22.941,-10.63l-140.906,-79.03l-7.051,12.102l-16.837,-41.884l44.724,-6.101l-7.262,12.416Z" style="fill:#328dd0;"/><path d="M294.373,117.646l-139.645,-81.029c-24.73,-12.628 -47.566,-15.468 -73.768,-5.157c-31.15,12.313 -52.511,37.779 -55.144,71.77c-2.105,27.044 8.631,54.826 28.52,73.346c23.781,22.205 55.142,27.257 85.976,19.259c5.471,-1.158 15.152,-5.157 22.203,-7.787c3.052,-1.053 5.579,-2 7.262,-2.211c12.208,-1.263 18.836,15.049 7.787,21.467c-23.467,13.786 -55.353,18.101 -76.611,15.996c-25.677,-2.841 -49.88,-13.996 -68.297,-32.2c-22.097,-21.784 -33.358,-51.04 -32.622,-81.977c1.158,-43.883 25.888,-81.451 66.194,-99.341c24.519,-10.839 52.3,-12.838 77.872,-5.157c9.259,2.736 14.732,5.893 22.941,10.525l140.906,79.135l7.157,-12.207l16.837,41.989l-44.83,6.101l7.262,-12.522Z" style="fill:#328dd0;"/></svg>
