<svg height="505" viewBox="0 0 505 505" width="505" xmlns="http://www.w3.org/2000/svg"><path d="m30.8355209 251.501399c0 123.267639 99.9319091 223.197681 223.2010481 223.197681 90.673958 0 168.72053-54.067314 203.656929-131.721059-9.73159-29.735374-18.151179-82.049844 15.434248-134.342329-1.437905-7.385125-3.237535-14.639337-5.382902-21.743648-102.987582 102.284488-186.138268 111.864165-248.7416 110.196266-.579559-.017988-2.684956-.359763-3.244529-1.62193 0 0-.912306-4.0903 1.755663-4.0903 119.940673 0 188.249661-70.578415 244.057167-122.183354-3.042683-7.672935-6.502049-15.133012-10.347121-22.361241-60.161192-16.552075-83.281587-65.8315482-91.488338-91.9652989-31.462044-16.9488131-67.456637-26.566465-105.699517-26.566465-123.269139 0-223.2010481 99.9300419-223.2010481 223.2016779m283.9617821-155.9400733s85.211118-9.2738788 110.30601 96.0286173c-93.115099-6.421761-110.30601-96.0286173-110.30601-96.0286173m-34.09304 44.3077553s75.545477-2.522335 92.742383 91.958304c-81.782728-11.834189-92.742383-91.958304-92.742383-91.958304m-41.498402 37.549216s67.987233-4.437071 85.384985 80.16209c-73.901729-8.310515-85.384985-80.16209-85.384985-80.16209m185.897452 14.171646c.096926.005996.184859.012991.282785.019987l-.204844.307797c-.02698-.108928-.051961-.218856-.077941-.327784m-222.074905 15.668658s59.737514-3.907421 75.027871 70.430513c-64.936555-7.298183-75.027871-70.430513-75.027871-70.430513m-47.861557 7.28819s57.385305-3.744529 72.071123 67.660341c-62.372508-7.011372-72.071123-67.660341-72.071123-67.660341m-47.372929 3.285831s52.080345-3.395759 65.409196 61.40547c-56.611894-6.364799-65.409196-61.40547-65.409196-61.40547m-51.5097785 9.485739s43.6917317-11.488417 62.5153985 41.170825c-2.04844.16689-4.033928.246838-5.960461.246838-43.8356224-.001999-56.5549375-41.417663-56.5549375-41.417663m371.8688475 4.384106c-.032975-.096936-.067948-.198869-.098925-.293806l.303769.082945c-.067948.069954-.136896.139908-.204844.210861 32.524235 98.042288-25.404656 151.405067-25.404656 151.405067s-40.704007-83.659781 25.404656-151.405067m-54.706345.124918c.080938.009993.162876.021985.242815.033977l-.188856.254832c-.016987-.098935-.032975-.190874-.053959-.288809m-48.8558 25.753002c.072945.009993.149886.016988.220832.025983l-.166873.231847c-.016987-.088942-.033974-.169888-.053959-.25783m55.674608 8.502388c-.009992-.094938-.020984-.19687-.029977-.294806l.257803.162893c-.075942.04497-.150885.087942-.227826.131913 10.177251 98.593924-53.259447 130.950567-53.259447 130.950567s-20.499391-87.790055 53.259447-130.950567m-261.325019 2.39342-.083936.169888c-.018986-.052965-.03997-.107929-.056957-.156897.046965-.004996.093929-.007994.140893-.012991m159.115844 9.212919c.063952.005996.124905.013991.189856.019987l-.142892.210861c-.016987-.077949-.030976-.154898-.046964-.230848m-104.853161 1.548978c.054958.007994.114912.01499.17087.019987l-.129901.177882c-.01399-.066956-.025981-.130913-.040969-.197869m-77.0503318 16.109367s36.7450208-34.987907 83.2256298 4.024344c-14.196191 12.130993-27.630961 16.306237-39.4 16.306237-25.972224 0-43.8256298-20.330581-43.8256298-20.330581m131.0851878-13.140327c.060953.005996.123906.013991.185858.019987l-.138894.204865c-.015988-.072952-.032975-.1519-.046964-.224852m96.578462 11.33252c.000999-.086942.000999-.178882.002998-.265824l.211838.179881c-.071945.02998-.142891.056962-.214836.085943-.872336 88.394656-60.055272 107.937757-60.055272 107.937757s-9.307913-80.32798 60.055272-107.937757m-144.305122 5.717227v.22685c-.044965-.037975-.088932-.074951-.132898-.111926.041968-.039974.087933-.077949.132898-.114924m-30.197007 47.949351s19.586087-50.945374 75.837256-41.021924c-16.081755 36.666799-41.378494 43.637198-58.277626 43.637198-10.358113 0-17.55963-2.615274-17.55963-2.615274m75.916195-41.201805.082937.208862c-.054958-.008994-.106918-.018987-.161876-.028981.026979-.05996.052959-.119921.078939-.179881m46.139868 3.114944c.01299-.073951.02698-.1519.040969-.225851l.158879.195871c-.06595.009993-.133898.020986-.199848.02998-13.457753 75.999837-67.272776 80.78268-67.272776 80.78268s3.527314-71.127053 67.272776-80.78268m-19.871869-293.5726305c-130.108931 0-235.9553361 105.8481365-235.9553361 235.9532615 0 130.106125 105.8464051 235.954261 235.9553361 235.954261 130.107932 0 235.958334-105.848136 235.958334-235.954261 0-130.105125-105.850402-235.9532615-235.958334-235.9532615m0 487.4532615c-138.677407 0-251.498501-112.824531-251.498501-251.5 0-138.677467 112.821094-251.5 251.498501-251.5s251.501499 112.822533 251.501499 251.5c0 138.675469-112.824092 251.5-251.501499 251.5" fill="#95bf3b" fill-rule="evenodd" transform="translate(1 1)"/></svg>